<?xml version="1.0" encoding="UTF-8" standalone="no"?>
<svg
   xmlns:dc="http://purl.org/dc/elements/1.1/"
   xmlns:cc="http://creativecommons.org/ns#"
   xmlns:rdf="http://www.w3.org/1999/02/22-rdf-syntax-ns#"
   xmlns:svg="http://www.w3.org/2000/svg"
   xmlns="http://www.w3.org/2000/svg"
   xmlns:sodipodi="http://sodipodi.sourceforge.net/DTD/sodipodi-0.dtd"
   xmlns:inkscape="http://www.inkscape.org/namespaces/inkscape"
   width="128"
   height="128"
   viewBox="0 0 33.866666 33.866668"
   version="1.1"
   id="svg8"
   inkscape:version="1.0.1 (3bc2e813f5, 2020-09-07)"
   sodipodi:docname="icon.svg">
  <style
     id="style833"></style>
  <defs
     id="defs2" />
  <sodipodi:namedview
     id="base"
     pagecolor="#858585"
     bordercolor="#666666"
     borderopacity="1.0"
     inkscape:pageopacity="0"
     inkscape:pageshadow="2"
     inkscape:zoom="2.8284271"
     inkscape:cx="25.49637"
     inkscape:cy="83.147703"
     inkscape:document-units="mm"
     inkscape:current-layer="layer1"
     inkscape:document-rotation="0"
     showgrid="false"
     units="px"
     inkscape:pagecheckerboard="false"
     showborder="true"
     inkscape:window-width="1490"
     inkscape:window-height="1204"
     inkscape:window-x="1582"
     inkscape:window-y="311"
     inkscape:window-maximized="0"
     inkscape:showpageshadow="false" />
  <metadata
     id="metadata5">
    <rdf:RDF>
      <cc:Work
         rdf:about="">
        <dc:format>image/svg+xml</dc:format>
        <dc:type
           rdf:resource="http://purl.org/dc/dcmitype/StillImage" />
        <dc:title></dc:title>
      </cc:Work>
    </rdf:RDF>
  </metadata>
  <g
     inkscape:label="Layer 1"
     inkscape:groupmode="layer"
     id="layer1">
    <path
       d="M 27.185524,3.1356429 H 9.1888871 C 8.1837782,3.135643 7.3689766,3.9504438 7.3689769,4.9555514 V 26.794448 c 0,1.005107 0.8148015,1.819908 1.8199102,1.819908 H 31.027813 c 1.003942,-0.0028 1.817098,-0.815968 1.81991,-1.819908 V 8.7978323 Z M 13.229167,11.641667 V 7.9375 h 10.054166 v 3.704167 z m 11.42384,9.906895 c -0.185614,3.947109 -4.968305,5.797155 -7.761994,3.003134 -2.79369,-2.794021 -0.943069,-7.576484 3.004067,-7.761625 2.675227,-0.117784 4.876031,2.083282 4.757927,4.758491 z"
       id="path837"
       style="fill:#ffffff;fill-opacity:1;stroke:#8e24aa;stroke-width:2.03795;stroke-miterlimit:4;stroke-dasharray:none;stroke-opacity:1"
       sodipodi:nodetypes="cscssccccccccccscc" />
    <g
       id="g864"
       transform="matrix(0.05720404,-0.02124477,0.02124477,0.05720404,-4.1911415,9.9064062)"
       style="fill:#ffeb3b;fill-opacity:1;stroke:#843b00;stroke-width:17.3625;stroke-miterlimit:4;stroke-dasharray:none;stroke-opacity:1">
      <path
         d="m 480,128 h -48 l -198.94,70.46 -59.13,-31.59 a 72.16,72.16 0 1 0 -25.69,41.47 l 52.2,31.72 L 192,277 148.36,303.76 a 71.74,71.74 0 1 0 24.79,38 L 480,160 Z m -376.52,64 a 40,40 0 1 1 40,-40 40,40 0 0 1 -40,40 z m 0,208 a 40,40 0 1 1 40,-40 40,40 0 0 1 -40,40 z m 152,-144 a 16,16 0 1 1 16,-16 16,16 0 0 1 -16,16 z"
         id="path850"
         style="fill:#ffeb3b;fill-opacity:1;stroke:#843b00;stroke-width:17.3625;stroke-miterlimit:4;stroke-dasharray:none;stroke-opacity:1" />
      <path
         d="m 335.98835,247.09719 -91.0793,55.32967 184.2499,64.031 51.71457,-0.83682 0.56877,-35.77898 z"
         id="path852"
         style="fill:#ffeb3b;fill-opacity:1;stroke:#843b00;stroke-width:19.0557;stroke-miterlimit:4;stroke-dasharray:none;stroke-opacity:1" />
    </g>
  </g>
</svg>
